# xmcd
#
# Track frame offsets:
# 150
# 21131
# 41188
# 56887
# 68265
# 81165
# 113386
# 130374
# 156174
# 177949
# 188307
# 208129
# 222133
# 237592
# 256225
# 273278
# 286025
# 314141
#
# Disc length: 4399 seconds
#
# Revision: 0
# Processed by: cddbd v1.5.1PL2 Copyright (c) Steve Scherf et al.
# Submitted via: Audion 3.0.2 (http://www.panic.com/audion/)
#
DISCID=00112d12
DTITLE=Paolo Conte - Concerti
DYEAR=1900
DGENRE=
TTITLE0=Lo zio
TTITLE1=Come di
TTITLE2=La ricostruzione del Mocambo
TTITLE3=Via con me
TTITLE4=La Topolino amaranto
TTITLE5=Alle prese con una verde milonga
TTITLE6=Parigi
TTITLE7=Diavolo Rosso
TTITLE8=Hemingway
TTITLE9=bartali
TTITLE10=Un gelato al limon
TTITLE11=Una giornata al mare
TTITLE12=Il nostro amico Angiolilo
TTITLE13=Onda su onda
TTITLE14=Sotto le stelle del jazz
TTITLE15=Azzurro
TTITLE16=Boogie
TTITLE17=Genova per noi
EXTD=
EXTT0=
EXTT1=
EXTT2=
EXTT3=
EXTT4=
EXTT5=
EXTT6=
EXTT7=
EXTT8=
EXTT9=
EXTT10=
EXTT11=
EXTT12=
EXTT13=
EXTT14=
EXTT15=
EXTT16=
EXTT17=
PLAYORDER=
